<?xml version="1.0" encoding="utf-8"?>
<!-- Generator: $$$/GeneralStr/196=Adobe Illustrator 27.6.0, SVG Export Plug-In . SVG Version: 6.00 Build 0)  -->
<svg version="1.1" id="Livello_1" xmlns="http://www.w3.org/2000/svg" xmlns:xlink="http://www.w3.org/1999/xlink" x="0px" y="0px"
	 viewBox="0 0 645 157" style="enable-background:new 0 0 645 157;" xml:space="preserve">
<style type="text/css">
	.st0{fill:#D20A11;}
	.st1{fill:#575756;}
</style>
<path class="st0" d="M589.6,88.8c-2.1-5.3-5.8-7.9-10.9-7.9c-4.7,0-7.9,1.4-9.4,4.2c-0.9,1.7-1.4,4.4-1.4,8.2c0,5,1.1,9.9,3.2,14.6
	c2.1,4.8,5.5,7.2,10.1,7.2c3.6,0,6.3-1.5,7.9-4.6c1.7-3.1,2.5-6.8,2.5-10.9S590.9,92,589.6,88.8 M594.5,111.2
	c-3.6,4.5-8.2,6.7-14,6.7c-5.4,0-10.3-2.5-14.7-7.6c-4.4-5-6.6-11.8-6.6-20.1c0-10.8,4.3-20,12.8-27.8c7.6-6.5,16.2-9.7,25.8-9.7
	l0.2,1.5c-3.8,0.7-7.1,1.7-9.9,2.9c-2.8,1.2-5.2,2.9-7.4,5c-2.2,2.2-4.3,5-6.3,8.4c-2,3.4-3.3,6.8-4,10.1c1.9-1.2,3.5-2,4.9-2.6
	c2.4-1,4.9-1.5,7.4-1.5c4.9,0,8.9,1.7,12.2,5c3.3,3.4,4.9,8.2,4.9,14.4C599.9,101.7,598.1,106.7,594.5,111.2"/>
<path class="st0" d="M640.1,64.9c3.1,6,4.6,12.8,4.6,20.5c0,6.1-1,11.8-2.8,17.2c-3.6,10.1-9.8,15.2-18.6,15.2c-6,0-11-2.7-14.8-8.2
	c-4.2-5.8-6.2-13.8-6.2-23.8c0-7.9,1.4-14.7,4.2-20.3c3.8-7.7,9.5-11.6,17.3-11.6C630.7,53.9,636.2,57.6,640.1,64.9 M633.1,107.9
	c1.7-4.9,2.5-12,2.5-21.4c0-7.4-0.5-13.3-1.5-17.8c-1.9-8.2-5.4-12.4-10.6-12.4c-5.2,0-8.8,4.2-10.7,12.7c-1,4.5-1.5,10.5-1.5,17.9
	c0,6.9,0.5,12.5,1.6,16.6c2,7.8,5.6,11.6,11,11.6C628.3,115.3,631.4,112.8,633.1,107.9"/>
<polygon class="st1" points="0.3,53 28,53 28,54.3 18.1,54.3 38,106.4 57.7,54.3 47.9,54.3 47.9,53 67.3,53 67.3,54.3 59.2,54.3 
	35,118.3 32.8,118.3 8.4,54.3 0.3,54.3 "/>
<path class="st1" d="M66.7,115.5h7.9V74.6h-7.9v-1.4h16.6v42.3h7.9v1.4H66.7V115.5z M73.3,49.4c0-1.5,0.5-2.8,1.5-3.8
	c1.1-1.1,2.4-1.6,3.9-1.6s2.8,0.5,3.8,1.6c1.1,1,1.6,2.3,1.6,3.8s-0.5,2.8-1.6,3.9c-1,1-2.3,1.5-3.8,1.5s-2.8-0.5-3.9-1.5
	C73.8,52.2,73.3,50.9,73.3,49.4"/>
<path class="st1" d="M140.1,115.8c-0.9,0.7-1.9,1.3-3.2,1.7c-1.2,0.5-2.7,0.8-4.5,0.8c-3.3,0-5.7-0.7-7.1-2c-1.4-1.4-2.4-3.4-3-5.9
	h-0.2c-0.3,0.6-0.7,1.4-1.1,2.3c-0.5,0.9-1.2,1.8-2.2,2.7c-0.9,0.8-2.2,1.5-3.9,2c-1.6,0.6-3.7,0.9-6.2,0.9c-2.9,0-5.1-0.3-6.8-1
	c-1.7-0.6-3-1.4-4-2.3c-0.9-0.9-1.6-2-1.9-3.2c-0.3-1.2-0.4-2.3-0.4-3.4c0-2.4,0.5-4.3,1.4-5.7c0.9-1.4,2.2-2.6,3.7-3.4
	c1.6-0.9,3.3-1.6,5.1-2.1c1.9-0.5,3.8-1.1,5.7-1.7c2.2-0.8,4.1-1.4,5.5-1.9c1.5-0.5,2.7-1.2,3.5-1.9c0.8-0.8,1.4-1.8,1.6-3
	c0.3-1.2,0.5-2.9,0.5-4.9c0-1.6-0.1-3.1-0.3-4.4c-0.2-1.3-0.6-2.4-1.1-3.3c-0.5-0.9-1.3-1.7-2.3-2.1c-1-0.5-2.4-0.7-4.1-0.7
	c-2.2,0-4.1,0.4-5.6,1.2c-1.4,0.8-2.1,2-2.1,3.8c0,1.2,0.1,2.3,0.3,3.5c0.2,1.1,0.3,1.9,0.3,2.4c0,0.9-0.3,1.8-1,2.4
	c-0.7,0.6-1.7,0.9-3,0.9c-2.2,0-3.6-0.4-4.2-1.2c-0.5-0.8-0.8-1.9-0.8-3.2c0-1.5,0.3-2.9,1-4.3s1.7-2.6,3-3.6c1.4-1.1,3-1.9,5-2.6
	c2-0.6,4.3-0.9,6.9-0.9c3.1,0,5.8,0.4,7.9,1.2c2.1,0.8,3.8,1.8,5.1,3.2c1.3,1.3,2.2,2.8,2.8,4.5c0.5,1.6,0.8,3.4,0.8,5.2v25.4
	c0,2,0.3,3.3,0.9,4s1.5,1,2.6,1c0.8,0,1.5-0.1,2.4-0.4c0.8-0.3,1.6-0.7,2.4-1.2L140.1,115.8L140.1,115.8z M122.3,92h-0.2
	c-0.1,0.9-1.3,1.8-3.4,2.7l-7.7,3.1c-2.2,0.9-3.8,2.1-5,3.8c-1.2,1.6-1.7,3.5-1.7,5.9c0,1,0.1,2.1,0.3,3.2c0.2,1.1,0.6,2.1,1.1,3
	c0.6,0.8,1.3,1.5,2.2,2c1,0.5,2.3,0.8,3.9,0.8c2.2,0,4.1-0.5,5.4-1.4c1.4-0.9,2.5-2.1,3.2-3.6c0.8-1.4,1.2-3,1.4-4.6
	c0.3-1.7,0.4-3.2,0.4-4.6L122.3,92L122.3,92z"/>
<path class="st1" d="M152.6,114.7h18.1V2.9h-18.1V0.7h35c1.3-0.1,2.6-0.2,3.9-0.3h3.9c1.3-0.1,2.6-0.2,3.9-0.2
	c6.4,0,12.1,0.4,17,1.1c4.9,0.6,9.5,2.7,13.7,6c3.8,2.9,6.5,6.3,8,10c1.6,3.7,2.4,7.2,2.4,10.4c0,1.6-0.3,3.8-1,6.4
	c-0.6,2.5-1.9,5.1-3.9,7.8c-2,2.6-4.9,5.1-8.7,7.3c-3.8,2.2-8.9,3.7-15.2,4.4v0.3c1.7,0.2,4.1,0.7,7,1.3c3.1,0.5,6.1,1.5,9.1,2.9
	c3.2,1.4,6,3.3,8.7,5.7c2.6,2.3,4.5,5.3,5.6,9c0.6,2.2,1.1,4.7,1.3,7.5c0.3,2.7,0.5,5.6,0.6,8.5c0.2,2.9,0.4,5.8,0.5,8.5
	c0.2,2.7,0.5,5,1,6.9c0.6,2.8,1.7,5.4,3.1,7.7c1.4,2.3,3.7,3.4,6.9,3.4c1.4,0,2.9-0.3,4.4-0.8s2.9-1.4,4.1-2.6l1.5,1.8
	c-0.5,0.4-1.2,0.9-2,1.5c-0.7,0.4-1.5,0.9-2.6,1.3c-1.1,0.4-2.5,0.8-4.1,1c-1.5,0.3-3.4,0.5-5.7,0.5c-4.4,0-8-0.5-10.9-1.6
	c-2.8-1.1-5.1-2.7-6.9-4.7c-1.7-2.2-3.1-4.8-3.9-7.8c-0.8-3.2-1.3-6.8-1.6-10.9l-1.1-14.9c-0.4-5.4-1.5-9.7-3.3-12.7
	c-1.7-3-3.8-5.3-6.2-6.7c-2.3-1.4-4.7-2.2-7.2-2.5c-2.5-0.3-4.7-0.5-6.5-0.5h-16.3v59h18.1v2.3h-52.6L152.6,114.7L152.6,114.7z
	 M187.1,53.4h15c3.1,0,5.8-0.4,8.3-1.1s4.6-2.1,6.4-3.9c1.9-2,3.3-4.6,4.2-7.8s1.5-7.4,1.5-12.4c0-5.7-0.8-10.2-2.3-13.6
	c-1.4-3.5-3.3-6.1-5.7-7.8c-2.3-1.7-4.9-2.9-7.8-3.4c-2.8-0.5-5.7-0.8-8.5-0.8c-2,0-4,0.1-6,0.2c-2,0-3.6,0.1-5.1,0.3L187.1,53.4
	L187.1,53.4z"/>
<path class="st1" d="M255.7,82c0-5.3,1.1-10.3,3.4-14.9c2.4-4.6,5.4-8.5,9-11.8c3.7-3.4,7.8-6,12.2-7.8c4.6-1.8,9-2.8,13.4-2.8
	s8.8,0.9,13.2,2.8c4.6,1.8,8.7,4.5,12.2,7.8c3.7,3.3,6.7,7.2,9,11.8c2.4,4.6,3.6,9.5,3.6,14.9s-1.1,10-3.3,14.5
	c-2.2,4.5-5.1,8.4-8.7,11.8c-3.5,3.4-7.5,6-12.1,8c-4.6,2-9.3,2.9-14,2.9s-9.5-1-14-2.9c-4.6-2-8.7-4.6-12.2-8
	c-3.5-3.4-6.3-7.3-8.5-11.8C256.7,92,255.7,87.1,255.7,82 M272,82c0,7.7,0.6,13.9,1.8,18.5c1.2,4.6,2.8,8.1,4.7,10.6
	c2,2.4,4.2,4,6.9,4.7c2.6,0.8,5.4,1.1,8.3,1.1s5.7-0.4,8.3-1.1s4.9-2.3,6.9-4.7c2-2.5,3.5-6,4.7-10.6c1.2-4.6,1.8-10.7,1.8-18.5
	c0-6.5-0.4-12-1.3-16.3c-0.9-4.5-2.2-8.1-4.1-10.8c-1.7-2.8-4-4.8-6.7-6c-2.7-1.2-5.9-1.8-9.6-1.8s-6.9,0.6-9.6,1.8s-5,3.2-6.9,6
	c-1.7,2.7-3,6.3-3.9,10.8C272.4,70,272,75.5,272,82"/>
<path class="st1" d="M326.1,114.7h12.6V49.2h-12.6v-2.3h26.3V64h0.3c2.3-6.5,5.5-11.3,9.8-14.4c4.4-3,9.6-4.6,15.7-4.6
	c5.5,0,10.2,1.2,14.4,3.6c4.2,2.4,7,6.4,8.3,11.9h0.3c0.8-2,1.8-3.9,3.1-5.7c1.3-1.8,2.9-3.5,4.9-4.9c2-1.5,4.2-2.7,6.9-3.6
	c2.7-0.9,5.8-1.3,9.1-1.3c15.9,0,23.9,8.1,23.9,24.3v45.2h12.6v2.3h-39.2v-2.3H435V59.1c0-3.7-1-6.6-3.1-8.7c-2-2.1-4.7-3.1-8.2-3.1
	c-2.7,0-5.5,0.5-8.2,1.6c-2.7,1-5.2,2.5-7.4,4.6c-2.2,2.1-4,4.7-5.4,8c-1.3,3.3-2,7.1-2,11.4v41.7h12.6v2.3h-39.2v-2.3h12.6V61.4
	c0-4.8-1-8.3-2.9-10.6s-4.6-3.4-7.8-3.4c-2.3,0-4.8,0.6-7.5,1.8c-2.7,1.1-5.3,2.9-7.7,5.4c-2.3,2.4-4.2,5.5-5.9,9.5
	c-1.5,3.9-2.3,8.7-2.3,14.4v36.3h12.6v2.3H326L326.1,114.7L326.1,114.7z"/>
<path class="st1" d="M533.8,115.2c-1.4,1.1-3.1,2-5.1,2.8c-2,0.9-4.4,1.3-7.2,1.3c-5.2,0-9-1.1-11.4-3.3c-2.3-2.3-3.9-5.4-4.7-9.5
	H505c-0.4,1-1,2.2-1.8,3.8c-0.8,1.4-2,2.8-3.6,4.2c-1.5,1.3-3.6,2.4-6.2,3.3c-2.6,1-5.9,1.5-10,1.5c-4.6,0-8.2-0.5-11-1.6
	c-2.7-1-4.9-2.2-6.4-3.8c-1.5-1.5-2.6-3.2-3.1-5.1c-0.4-2-0.7-3.8-0.7-5.4c0-3.8,0.8-6.9,2.3-9.2s3.5-4.1,5.9-5.4
	c2.5-1.4,5.2-2.6,8.2-3.4c3-0.9,6.1-1.8,9.1-2.8c3.6-1.2,6.5-2.2,8.8-3.1c2.4-0.9,4.2-1.9,5.6-3.1c1.3-1.3,2.2-2.9,2.6-4.7
	c0.5-2,0.8-4.6,0.8-7.8c0-2.6-0.2-5-0.5-7s-0.9-3.8-1.8-5.2c-0.9-1.5-2.1-2.7-3.8-3.4c-1.6-0.8-3.8-1.1-6.5-1.1c-3.6,0-6.6,0.7-9,2
	c-2.3,1.2-3.4,3.2-3.4,6c0,1.8,0.2,3.7,0.5,5.6c0.3,1.7,0.5,3,0.5,3.9c0,1.5-0.5,2.8-1.6,3.9c-1.1,1-2.7,1.5-4.7,1.5
	c-3.6,0-5.8-0.7-6.7-2c-0.9-1.3-1.3-3-1.3-5.1c0-2.4,0.5-4.7,1.6-6.9s2.7-4.1,4.7-5.7c2.2-1.7,4.9-3.1,8-4.1c3.3-1,7-1.5,11.1-1.5
	c5,0,9.2,0.7,12.6,2c3.4,1.2,6.1,2.9,8.2,5.1c2.1,2.1,3.5,4.5,4.4,7.2c0.9,2.6,1.3,5.4,1.3,8.3V108c0,3.2,0.5,5.3,1.5,6.4
	c1,1.1,2.4,1.6,4.2,1.6c1.2,0,2.4-0.2,3.8-0.7c1.3-0.4,2.6-1.1,3.8-2L533.8,115.2L533.8,115.2z M505.2,76.9h-0.3
	c-0.2,1.4-2,2.8-5.4,4.2l-12.2,4.9c-3.5,1.4-6.2,3.4-8,6.1c-1.9,2.5-2.8,5.7-2.8,9.5c0,1.6,0.2,3.3,0.5,5.1c0.3,1.7,0.9,3.3,1.8,4.7
	c0.9,1.3,2.1,2.4,3.6,3.3c1.6,0.9,3.7,1.3,6.2,1.3c3.6,0,6.5-0.8,8.7-2.3c2.3-1.5,4-3.4,5.1-5.7c1.2-2.3,2-4.7,2.3-7.3
	c0.4-2.7,0.6-5.2,0.6-7.3L505.2,76.9L505.2,76.9z"/>
<path class="st1" d="M540.5,130.9c1.6-1.1,2.9-2.3,3.8-3.3c1-1,1.8-2,2.4-3c0.6-0.9,1-1.8,1.1-2.5c0.2-0.8,0.3-1.4,0.3-2
	c0-1.7-0.5-3.2-1.5-4.2c-0.9,1.4-2.1,2-3.5,2c-1,0-2-0.4-3-1.1c-1-0.8-1.5-1.8-1.5-3.3c0-1.2,0.5-2.3,1.4-3.3c1-0.9,2.2-1.4,3.6-1.4
	c1,0,2,0.2,2.8,0.7c0.9,0.5,1.6,1.1,2.2,1.9c0.6,0.8,1,1.7,1.3,2.7c0.3,1,0.5,2.1,0.5,3.1c0,1.6-0.3,3.1-1,4.7
	c-0.7,1.6-1.4,3-2.4,4.3c-0.9,1.3-1.9,2.5-3,3.4c-1.1,1-2,1.7-2.9,2.3L540.5,130.9L540.5,130.9z"/>
<polygon class="st0" points="26.9,156.6 26.9,144.8 29.1,144.8 29.1,149.7 38.1,149.7 38.1,144.8 40.4,144.8 40.4,156.6 38.1,156.6 
	38.1,151.1 29.1,151.1 29.1,156.6 "/>
<path class="st0" d="M75.3,150.9c0,1.4,0.6,2.6,1.7,3.4c1.1,0.8,2.5,1.2,4.2,1.2s3.1-0.4,4.2-1.2c1.1-0.8,1.7-2,1.7-3.5
	c0-1-0.2-1.8-0.7-2.5c-0.5-0.7-1.2-1.3-2.1-1.7c-0.9-0.4-1.9-0.6-3.1-0.6c-1.6,0-3,0.4-4.2,1.1C75.8,147.9,75.3,149.1,75.3,150.9
	 M72.9,150.9c0-2,0.8-3.5,2.3-4.6c1.5-1.1,3.5-1.7,5.9-1.7c1.6,0,3,0.3,4.3,0.8c1.3,0.5,2.2,1.2,2.9,2.2c0.7,0.9,1,2,1,3.2
	S89,153,88.3,154c-0.7,0.9-1.7,1.7-3,2.1c-1.3,0.5-2.7,0.7-4.2,0.7c-1.6,0-3.1-0.3-4.3-0.8c-1.3-0.5-2.2-1.3-2.9-2.2
	S72.9,151.9,72.9,150.9"/>
<path class="st0" d="M121.7,156.6v-11.8h3.4l4.1,8.4c0.4,0.8,0.6,1.4,0.8,1.8c0.2-0.4,0.5-1.1,0.9-1.9l4.1-8.2h3.1v11.8h-2.2v-9.9
	l-5,9.9h-2.1l-5-10.1v10.1L121.7,156.6L121.7,156.6z"/>
<polygon class="st0" points="171.3,156.6 171.3,144.8 183.7,144.8 183.7,146.2 173.6,146.2 173.6,149.8 183.1,149.8 183.1,151.2 
	173.6,151.2 173.6,155.2 184.1,155.2 184.1,156.6 "/>
<path class="st0" d="M229,152.5l2.3,0.4c-0.5,1.3-1.3,2.3-2.6,2.9c-1.2,0.7-2.8,1-4.5,1s-3.4-0.3-4.5-0.8c-1.2-0.5-2-1.3-2.6-2.3
	c-0.6-1-0.9-2-0.9-3.2c0-1.2,0.3-2.3,1-3.2c0.7-0.9,1.7-1.6,2.9-2.1c1.3-0.5,2.7-0.7,4.2-0.7c1.7,0,3.2,0.3,4.3,0.9s2,1.4,2.4,2.5
	l-2.2,0.4c-0.4-0.9-1-1.5-1.7-1.9c-0.8-0.4-1.7-0.6-2.9-0.6c-1.3,0-2.4,0.2-3.3,0.6c-0.9,0.4-1.5,1-1.9,1.8
	c-0.4,0.7-0.5,1.5-0.5,2.3c0,1,0.2,1.9,0.6,2.6c0.4,0.8,1.1,1.3,2,1.7c0.9,0.4,1.9,0.6,2.9,0.6c1.3,0,2.4-0.2,3.2-0.8
	C228.1,154.2,228.7,153.5,229,152.5"/>
<path class="st0" d="M265.2,150.9c0,1.4,0.5,2.6,1.7,3.4c1.1,0.8,2.5,1.2,4.2,1.2s3.1-0.4,4.2-1.2c1.1-0.8,1.7-2,1.7-3.5
	c0-1-0.2-1.8-0.7-2.5c-0.5-0.7-1.2-1.3-2.1-1.7c-0.9-0.4-1.9-0.6-3.1-0.6c-1.6,0-3,0.4-4.2,1.1C265.8,147.9,265.2,149.1,265.2,150.9
	 M262.9,150.9c0-2,0.8-3.5,2.3-4.6c1.5-1.1,3.5-1.7,5.9-1.7c1.6,0,3,0.3,4.3,0.8c1.3,0.5,2.2,1.2,2.9,2.2c0.7,0.9,1,2,1,3.2
	c0,1.2-0.4,2.3-1.1,3.2c-0.7,0.9-1.7,1.7-3,2.1c-1.3,0.5-2.7,0.7-4.2,0.7c-1.6,0-3.1-0.3-4.3-0.8c-1.3-0.5-2.2-1.3-2.9-2.2
	S262.9,151.9,262.9,150.9"/>
<polygon class="st0" points="311.6,156.6 311.6,144.8 313.9,144.8 313.9,155.2 322.4,155.2 322.4,156.6 "/>
<polygon class="st0" points="354.4,156.6 354.4,144.8 356.7,144.8 356.7,155.2 365.2,155.2 365.2,156.6 "/>
<polygon class="st0" points="397.4,156.6 397.4,144.8 409.9,144.8 409.9,146.2 399.7,146.2 399.7,149.8 409.2,149.8 409.2,151.2 
	399.7,151.2 399.7,155.2 410.3,155.2 410.3,156.6 "/>
<path class="st0" d="M455.1,152.5l2.3,0.4c-0.5,1.3-1.3,2.3-2.6,2.9c-1.2,0.7-2.8,1-4.5,1s-3.4-0.3-4.5-0.8c-1.2-0.5-2-1.3-2.6-2.3
	c-0.6-1-0.9-2-0.9-3.2c0-1.2,0.3-2.3,1-3.2c0.7-0.9,1.7-1.6,2.9-2.1c1.3-0.5,2.7-0.7,4.2-0.7c1.7,0,3.2,0.3,4.3,0.9
	c1.2,0.6,2,1.4,2.5,2.5l-2.2,0.4c-0.4-0.9-1-1.5-1.7-1.9c-0.8-0.4-1.7-0.6-2.9-0.6c-1.3,0-2.4,0.2-3.3,0.6c-0.9,0.4-1.5,1-1.9,1.8
	c-0.4,0.7-0.5,1.5-0.5,2.3c0,1,0.2,1.9,0.6,2.6c0.4,0.8,1.1,1.3,2,1.7s1.9,0.6,2.9,0.6c1.3,0,2.4-0.2,3.2-0.8
	C454.2,154.2,454.8,153.5,455.1,152.5"/>
<polygon class="st0" points="494.1,156.6 494.1,146.2 488.4,146.2 488.4,144.8 502,144.8 502,146.2 496.3,146.2 496.3,156.6 "/>
<rect x="534.2" y="144.8" class="st0" width="2.3" height="11.8"/>
<path class="st0" d="M571.6,150.9c0,1.4,0.6,2.6,1.7,3.4c1.1,0.8,2.5,1.2,4.2,1.2c1.7,0,3.1-0.4,4.2-1.2c1.1-0.8,1.7-2,1.7-3.5
	c0-1-0.2-1.8-0.7-2.5c-0.5-0.7-1.2-1.3-2.1-1.7c-0.9-0.4-1.9-0.6-3.1-0.6c-1.6,0-3,0.4-4.2,1.1C572.2,147.9,571.6,149.1,571.6,150.9
	 M569.3,150.9c0-2,0.8-3.5,2.3-4.6c1.5-1.1,3.5-1.7,5.9-1.7c1.6,0,3,0.3,4.3,0.8c1.3,0.5,2.2,1.2,2.9,2.2c0.7,0.9,1,2,1,3.2
	c0,1.2-0.3,2.3-1.1,3.2c-0.7,0.9-1.7,1.7-3,2.1c-1.3,0.5-2.7,0.7-4.2,0.7c-1.6,0-3.1-0.3-4.3-0.8c-1.3-0.5-2.2-1.3-2.9-2.2
	C569.6,152.9,569.3,151.9,569.3,150.9"/>
<polygon class="st0" points="618.1,156.6 618.1,144.8 620.4,144.8 629.5,154.1 629.5,144.8 631.6,144.8 631.6,156.6 629.3,156.6 
	620.3,147.3 620.3,156.6 "/>
</svg>
